PathFileType	4	(X/Y/Z)	/Users/itak/Documents/Research/Walk-IL/dataset/trc/00370_00011.trc
DataRate	CameraRate	NumFrames	NumMarkers	Units	OrigDataRate	OrigDataStartFrame	OrigNumFrames
100.000000	100.000000	4	57	mm	100.000000	64	516
Frame#	Time	RPSI			LPSI			L3			STRN			T10			C7			CLAV			RBAK			LBAK			LSHO			LUPA			LAEL			LAOL			LWTS			LWPS			LFRA			LIFD			LHPS			LHTS			RSHO			RUPA			RAEL			RAOL			RWPS			RFRA			RIFD			RHTS			RHPS			RBHD			LFHD			RFHD			LBHD			LHIP			RHIP			RASI			LASI			LKNE			LTHI			LANK			LTIP			LTOE			LMT1			LMT5			LHEE			RKNE			RTHI			RANK			RTIP			RTOE			RMT1			RMT5			RHEE			RWTS			*53			*54			*55			*56			
		X1	Y1	Z1	X2	Y2	Z2	X3	Y3	Z3	X4	Y4	Z4	X5	Y5	Z5	X6	Y6	Z6	X7	Y7	Z7	X8	Y8	Z8	X9	Y9	Z9	X10	Y10	Z10	X11	Y11	Z11	X12	Y12	Z12	X13	Y13	Z13	X14	Y14	Z14	X15	Y15	Z15	X16	Y16	Z16	X17	Y17	Z17	X18	Y18	Z18	X19	Y19	Z19	X20	Y20	Z20	X21	Y21	Z21	X22	Y22	Z22	X23	Y23	Z23	X24	Y24	Z24	X25	Y25	Z25	X26	Y26	Z26	X27	Y27	Z27	X28	Y28	Z28	X29	Y29	Z29	X30	Y30	Z30	X31	Y31	Z31	X32	Y32	Z32	X33	Y33	Z33	X34	Y34	Z34	X35	Y35	Z35	X36	Y36	Z36	X37	Y37	Z37	X38	Y38	Z38	X39	Y39	Z39	X40	Y40	Z40	X41	Y41	Z41	X42	Y42	Z42	X43	Y43	Z43	X44	Y44	Z44	X45	Y45	Z45	X46	Y46	Z46	X47	Y47	Z47	X48	Y48	Z48	X49	Y49	Z49	X50	Y50	Z50	X51	Y51	Z51	X52	Y52	Z52	X53	Y53	Z53	X54	Y54	Z54	X55	Y55	Z55	X56	Y56	Z56	X57	Y57	Z57	

65	0.64	-1341.672973632812	982.0137329101562	-34.93390655517578	-1339.5703125	981.2056884765625	-163.8547821044922	-1341.100219726562	1033.149780273438	-97.16428375244141	-1126.336181640625	1231.677001953125	-105.2765426635742	-1357.175415039062	1150.443725585938	-113.6186752319336	-1332.560546875	1400.904052734375	-135.6439208984375	-1172.542236328125	1357.436279296875	-115.7268829345703	-1372.180908203125	1260.43310546875	-67.87584686279297	-1333.725463867188	1360.043334960938	-235.8255310058594	-1246.171630859375	1382.563598632812	-287.0939025878906	-1253.433349609375	1257.674438476562	-349.6997375488281	-1227.386108398438	1054.0498046875	-348.9274597167969	-1293.072387695312	1040.91943359375	-297.6656188964844	-1128.141723632812	818.859375	-283.3397521972656	-1162.212768554688	803.4385986328125	-342.2059326171875	-1207.509033203125	950.472900390625	-348.6170349121094	-1115.4541015625	658.6731567382812	-272.2579040527344	-1162.934936523438	733.22216796875	-332.5650329589844	-1112.944580078125	738.7198486328125	-293.2462158203125	-1288.893676757812	1398.044555664062	32.49679183959961	-1300.581665039062	1333.55615234375	95.46096801757812	-1283.550903320312	1066.6455078125	135.2981414794922	-1312.369384765625	1057.081787109375	45.76794052124023	-1197.366088867188	828.93701171875	167.6931457519531	-1255.833984375	1001.006103515625	148.6307373046875	-1137.392211914062	670.7279663085938	123.6438140869141	-1125.611450195312	743.4735717773438	122.9466781616211	-1178.551513671875	745.5521850585938	168.2728271484375	-1305.16455078125	1613.31591796875	-48.70896148681641	-1123.935424804688	1630.454956054688	-151.4828948974609	-1142.002075195312	1628.306884765625	-52.73871612548828	-1305.298828125	1611.518798828125	-193.318359375	-1250.469116210938	924.8759155273438	-265.8214111328125	-1265.292358398438	930.3944702148438	76.32122039794922	-1158.210327148438	958.050537109375	34.19342803955078	-1131.53662109375	951.9475708007812	-202.3785400390625	-1218.248657226562	468.0571899414062	-258.0796203613281	-1210.615112304688	606.1543579101562	-264.7196350097656	-1303.073120117188	47.77875518798828	-255.0954284667969	-1262.135986328125	252.5937347412109	-268.1866760253906	-1096.560546875	46.1098518371582	-192.231689453125	-1164.128540039062	37.89745330810547	-151.9293212890625	-1176.316528320312	44.04558944702148	-265.9156494140625	-1335.731811523438	44.09080123901367	-186.0697631835938	-1245.91650390625	464.5867004394531	67.66181182861328	-1197.8251953125	721.3878784179688	84.84334564208984	-1307.421630859375	52.40054702758789	46.55291366577148	-1240.840698242188	346.08935546875	56.0487060546875	-1114.169189453125	48.67504501342773	-8.685953140258789	-1169.825927734375	43.20124053955078	-48.68051910400391	-1204.838012695312	42.05506134033203	63.14255523681641	-1357.134887695312	52.00302505493164	-1.073078274726868	-1156.350830078125	845.9865112304688	105.7248153686523	nan	nan	nan	nan	nan	nan	nan	nan	nan	nan	nan	nan	
66	0.65	-1341.56787109375	982.0155639648438	-34.82655334472656	-1339.373657226562	981.2042236328125	-163.7036285400391	-1341.014404296875	1033.143310546875	-97.07420349121094	-1126.191772460938	1231.6826171875	-105.1198577880859	-1357.07275390625	1150.45068359375	-113.5037994384766	-1332.427001953125	1400.900756835938	-135.5237884521484	-1172.39501953125	1357.441162109375	-115.5358428955078	-1372.032958984375	1260.430297851562	-67.74248504638672	-1333.58837890625	1360.050537109375	-235.6826934814453	-1246.04736328125	1382.575439453125	-286.9668579101562	-1253.305908203125	1257.710083007812	-349.5937805175781	-1227.258422851562	1054.085815429688	-348.9523010253906	-1292.858520507812	1040.93505859375	-297.6322631835938	-1128.35205078125	818.6460571289062	-283.28466796875	-1162.053588867188	803.4557495117188	-342.3380737304688	-1207.365844726562	950.5183715820312	-348.6808166503906	-1115.62890625	658.51611328125	-272.3087768554688	-1162.813232421875	733.2474975585938	-332.7202758789062	-1112.892211914062	738.6817016601562	-293.3882446289062	-1288.6953125	1398.036987304688	32.65503692626953	-1300.448486328125	1333.563598632812	95.54116058349609	-1283.450073242188	1066.640991210938	135.4240264892578	-1312.227905273438	1057.080322265625	45.86479187011719	-1197.386474609375	828.8909301757812	167.8895874023438	-1255.719970703125	1000.983337402344	148.7612152099609	-1137.441040039062	670.6507568359375	123.9027786254883	-1125.568237304688	743.4713745117188	123.1001129150391	-1178.595458984375	745.5048217773438	168.4276885986328	-1304.88330078125	1613.320556640625	-48.57454299926758	-1123.631469726562	1630.406616210938	-151.3739166259766	-1141.762939453125	1628.23291015625	-52.64839935302734	-1305.058471679688	1611.505737304688	-193.1272583007812	-1250.424438476562	924.8812255859375	-265.7471923828125	-1265.198608398438	930.403564453125	76.43006134033203	-1158.0615234375	958.0032958984375	34.36354446411133	-1131.437133789062	951.9131469726562	-202.3034210205078	-1218.128173828125	468.0380249023438	-258.0247802734375	-1210.458374023438	606.1381225585938	-264.6256713867188	-1303.07861328125	47.78793716430664	-255.0958404541016	-1262.022583007812	252.5907287597656	-268.1364440917969	-1096.555297851562	46.10707473754883	-192.2288970947266	-1164.130981445312	37.88552856445312	-151.9263763427734	-1176.311889648438	44.05068969726562	-265.9074401855469	-1335.726806640625	44.09788513183594	-186.0662994384766	-1245.883056640625	464.52685546875	67.71514129638672	-1197.677612304688	721.31005859375	84.85623931884766	-1307.41943359375	52.39833450317383	46.56106185913086	-1240.79833984375	346.0734558105469	56.08517837524414	-1114.174682617188	48.67448043823242	-8.685659408569336	-1169.827026367188	43.20208740234375	-48.6806755065918	-1204.84033203125	42.05066680908203	63.14223480224609	-1357.140014648438	52.00600433349609	-1.063567399978638	-1156.38916015625	845.9129638671875	105.8627624511719	nan	nan	nan	nan	nan	nan	nan	nan	nan	nan	nan	nan	
67	0.66	-1341.453857421875	982.0194702148438	-34.72163009643555	-1339.16455078125	981.2058715820312	-163.5545043945312	-1340.905639648438	1033.140625	-96.98162841796875	-1126.031494140625	1231.696411132812	-104.9402008056641	-1356.947875976562	1150.454711914062	-113.3978118896484	-1332.267700195312	1400.901489257812	-135.3980865478516	-1172.243408203125	1357.44677734375	-115.3526229858398	-1371.876586914062	1260.423950195312	-67.61454772949219	-1333.457153320312	1360.057739257812	-235.5619812011719	-1245.910888671875	1382.592529296875	-286.8404235839844	-1253.14892578125	1257.757080078125	-349.4951477050781	-1227.089233398438	1054.1298828125	-348.9820861816406	-1292.642822265625	1040.9560546875	-297.6223449707031	-1128.575805664062	818.4003295898438	-283.2224731445312	-1161.858764648438	803.4834594726562	-342.4793701171875	-1207.198608398438	950.57421875	-348.7594299316406	-1115.779541015625	658.3785400390625	-272.3565368652344	-1162.672119140625	733.281005859375	-332.8978881835938	-1112.815795898438	738.6630859375	-293.5271911621094	-1288.495727539062	1398.031982421875	32.81277847290039	-1300.31982421875	1333.55908203125	95.6295166015625	-1283.3447265625	1066.635864257812	135.5563201904297	-1312.084838867188	1057.087280273438	45.95926666259766	-1197.3955078125	828.8544921875	168.0982971191406	-1255.600708007812	1000.966186523438	148.8840179443359	-1137.473266601562	670.6019287109375	124.1873626708984	-1125.517456054688	743.4649047851562	123.3205261230469	-1178.6396484375	745.4735717773438	168.5954742431641	-1304.606811523438	1613.326293945312	-48.43639373779297	-1123.324951171875	1630.350952148438	-151.2547607421875	-1141.585815429688	1628.161376953125	-52.53056716918945	-1304.837768554688	1611.491455078125	-192.9397125244141	-1250.378295898438	924.8875732421875	-265.6770935058594	-1265.086181640625	930.4100952148438	76.54553985595703	-1157.890869140625	957.9581909179688	34.55320358276367	-1131.308837890625	951.8943481445312	-202.2390594482422	-1218.007446289062	468.017578125	-257.9679260253906	-1210.290405273438	606.121337890625	-264.5318298339844	-1303.084350585938	47.79682540893555	-255.0969696044922	-1261.914428710938	252.5888061523438	-268.0888061523438	-1096.549560546875	46.10336685180664	-192.2256317138672	-1164.134887695312	37.87267303466797	-151.9235382080078	-1176.306640625	44.05402755737305	-265.9001770019531	-1335.721557617188	44.1057014465332	-186.0639495849609	-1245.8466796875	464.4716491699219	67.76762390136719	-1197.535034179688	721.2243041992188	84.88808441162109	-1307.417846679688	52.39706802368164	46.56788635253906	-1240.7451171875	346.0579528808594	56.12144088745117	-1114.178588867188	48.67314910888672	-8.685541152954102	-1169.82470703125	43.20059967041016	-48.67901229858398	-1204.84228515625	42.047119140625	63.14181137084961	-1357.145263671875	52.00958633422852	-1.055548191070557	-1156.391357421875	845.8524169921875	106.0169830322266	nan	nan	nan	nan	nan	nan	nan	nan	nan	nan	nan	nan	
68	0.67	-1341.3310546875	982.02490234375	-34.619873046875	-1338.946533203125	981.2103881835938	-163.4090728759766	-1340.76904296875	1033.140991210938	-96.88336944580078	-1125.859252929688	1231.713012695312	-104.7389678955078	-1356.798583984375	1150.456298828125	-113.2994537353516	-1332.081176757812	1400.906494140625	-135.2669525146484	-1172.087646484375	1357.453002929688	-115.1804733276367	-1371.711059570312	1260.415405273438	-67.49183654785156	-1333.319458007812	1360.065551757812	-235.4575042724609	-1245.760009765625	1382.613647460938	-286.7146301269531	-1252.956787109375	1257.81396484375	-349.4015502929688	-1226.876708984375	1054.180541992188	-349.0115356445312	-1292.4306640625	1040.980834960938	-297.6338195800781	-1128.7060546875	818.2000122070312	-283.2019958496094	-1161.6337890625	803.5205688476562	-342.6234741210938	-1207.010986328125	950.6381225585938	-348.8494873046875	-1115.896606445312	658.2672119140625	-272.4037475585938	-1162.512329101562	733.3200073242188	-333.0932312011719	-1112.705688476562	738.670654296875	-293.6655578613281	-1288.30029296875	1398.028564453125	32.9651985168457	-1300.19140625	1333.542236328125	95.72649383544922	-1283.236450195312	1066.63330078125	135.6941223144531	-1311.941162109375	1057.1005859375	46.05291748046875	-1197.3896484375	828.8302612304688	168.3161163330078	-1255.477172851562	1000.954467773438	148.9978485107422	-1137.490112304688	670.5813598632812	124.4997787475586	-1125.471801757812	743.4447631835938	123.6212387084961	-1178.682861328125	745.45703125	168.7706909179688	-1304.337524414062	1613.332397460938	-48.29558944702148	-1123.025756835938	1630.291870117188	-151.1270904541016	-1141.45654296875	1628.095703125	-52.3885612487793	-1304.640014648438	1611.480102539062	-192.7621917724609	-1250.330688476562	924.8948974609375	-265.6103210449219	-1264.957763671875	930.4152221679688	76.66396331787109	-1157.70068359375	957.917724609375	34.76011657714844	-1131.148681640625	951.89453125	-202.1805725097656	-1217.885498046875	467.99658203125	-257.9074401855469	-1210.11181640625	606.1044311523438	-264.43701171875	-1303.086791992188	47.80417633056641	-255.0966796875	-1261.811279296875	252.5878143310547	-268.0438232421875	-1096.544067382812	46.09865570068359	-192.22216796875	-1164.139282226562	37.85888290405273	-151.9209899902344	-1176.301147460938	44.05556106567383	-265.8932800292969	-1335.716918945312	44.11389541625977	-186.0626983642578	-1245.80615234375	464.4264221191406	67.82044219970703	-1197.398193359375	721.12841796875	84.94342803955078	-1307.416625976562	52.39629364013672	46.5731086730957	-1240.679931640625	346.0416870117188	56.15678787231445	-1114.1806640625	48.67101669311523	-8.685708999633789	-1169.821166992188	43.19832229614258	-48.67672729492188	-1204.844116210938	42.04484558105469	63.14194107055664	-1357.149536132812	52.01311111450195	-1.048849940299988	-1156.35107421875	845.8084716796875	106.1816253662109	nan	nan	nan	nan	nan	nan	nan	nan	nan	nan	nan	nan	
